<?xml version="1.0" standalone="no"?>
<!DOCTYPE svg PUBLIC "-//W3C//DTD SVG 20010904//EN"
 "http://www.w3.org/TR/2001/REC-SVG-20010904/DTD/svg10.dtd">
<svg version="1.0" xmlns="http://www.w3.org/2000/svg"
 width="97.000000pt" height="97.000000pt" viewBox="0 0 97.000000 97.000000"
 preserveAspectRatio="xMidYMid meet">
<metadata>
Created by potrace 1.14, written by Peter Selinger 2001-2017
</metadata>
<g transform="translate(0.000000,97.000000) scale(0.100000,-0.100000)"
fill="#000000" stroke="none">
<path d="M401 886 l-84 -85 49 -3 49 -3 -79 -82 -79 -83 59 0 59 0 -95 -95
-95 -95 300 0 300 0 -95 95 -95 95 60 0 60 0 -85 86 -85 86 57 -4 58 -3 -87
88 c-48 48 -88 87 -88 87 0 0 -38 -38 -84 -84z"/>
<path d="M207 812 c-37 -37 -67 -71 -67 -75 0 -4 17 -7 37 -7 l37 0 -69 -70
-69 -70 49 0 50 0 -76 -75 -76 -75 65 0 65 0 78 77 c44 42 79 81 79 85 0 4
-18 8 -40 8 -58 0 -52 22 27 102 l67 68 -32 0 c-37 0 -52 21 -31 46 10 12 9
18 -7 35 -19 19 -20 18 -87 -49z"/>
<path d="M665 860 c-17 -19 -17 -21 -1 -39 24 -26 12 -41 -32 -41 l-36 0 73
-74 c83 -83 88 -106 24 -106 l-38 0 80 -80 80 -80 65 0 64 0 -74 75 -74 75 42
0 c23 0 42 3 42 7 0 4 -28 36 -62 70 l-62 63 44 0 44 0 -74 75 c-41 41 -77 75
-81 75 -3 0 -14 -9 -24 -20z"/>
<path d="M14 385 c-7 -19 -14 -42 -14 -50 0 -14 4 -13 26 4 34 27 48 27 34 1
-12 -22 -11 -118 0 -125 4 -2 13 7 20 20 18 34 27 31 22 -7 -3 -19 2 -44 13
-65 l19 -34 13 32 c7 18 15 30 18 28 3 -4 9 -33 14 -70 1 -3 12 -19 26 -35
l25 -29 1 40 0 40 17 -25 c9 -14 31 -38 47 -53 l30 -28 5 28 c5 28 5 28 20 6
9 -11 32 -31 53 -43 l37 -22 -9 24 c-5 15 -6 30 0 39 7 12 9 11 9 -2 0 -16 19
-29 41 -29 14 0 11 60 -3 61 -13 1 -20 2 -85 14 -45 8 -122 43 -161 73 -49 37
-110 128 -128 189 -14 49 -18 53 -45 53 -25 0 -33 -6 -45 -35z"/>
<path d="M124 379 c9 -58 30 -94 87 -151 57 -57 151 -104 227 -114 51 -6 52
-6 52 20 0 14 -6 26 -12 27 -44 2 -134 27 -171 46 -57 29 -137 140 -137 190 0
18 -5 23 -26 23 -25 0 -26 -2 -20 -41z"/>
<path d="M190 400 c0 -97 149 -220 265 -220 52 0 46 26 -7 35 -96 16 -178 79
-204 157 -11 35 -21 48 -35 48 -12 0 -19 -7 -19 -20z"/>
<path d="M266 393 c17 -71 85 -136 161 -154 53 -12 63 -11 63 5 0 9 -20 19
-51 26 -64 16 -139 82 -139 123 0 20 -5 27 -20 27 -17 0 -19 -4 -14 -27z"/>
<path d="M336 398 c17 -56 64 -95 127 -105 35 -6 35 13 0 22 -41 10 -90 50
-97 80 -4 14 -13 25 -22 25 -11 0 -14 -6 -8 -22z"/>
<path d="M400 413 c2 -32 90 -84 90 -53 0 6 -6 10 -14 10 -8 0 -24 11 -37 25
-24 25 -39 32 -39 18z"/>
</g>
</svg>
