<svg id="Vrstva_1" data-name="Vrstva 1" xmlns="http://www.w3.org/2000/svg" viewBox="0 0 91.01 53.78"><defs><style>.cls-1{fill:#009640;}.cls-2{fill:#008c3c;}.cls-3{fill:#52ad3b;}.cls-4{fill:#b1d178;}.cls-5{fill:#d29460;}.cls-6{fill:#dadada;}</style></defs><path d="M82.66,44.64V40.25c1.29-.29,1.8-1.08,1.8-2.81,0-1.58-.51-2.38-1.8-2.59V30.74C85,30.82,86.76,31,88,32a5.76,5.76,0,0,1,2,4.82c0,2.67-.87,4.39-2.81,5.55,2.45,1.08,2.52,2.59,2.59,5.32.07,3-.14,5,1.3,6.12H84.74a11.44,11.44,0,0,1-.43-3.16c0-1,.07-1.8.07-2.38C84.38,45.94,84,44.86,82.66,44.64Zm0-13.9v4.11a6.57,6.57,0,0,0-1.23-.15c-.21,0-.43.08-.65.08v5.54c.22,0,.44.07.65.07a6.6,6.6,0,0,0,1.23-.14v4.39a3.1,3.1,0,0,0-.8-.07H80.78v9.21H75.46v-23h7.2Zm-23.4,23V52.56l.28,1.22Zm0-18.57h4V53.78h5.4V35.21h4.53V30.74h-14Zm0-4.47v4.47H59V30.74Zm0,21.82L54.65,30.74H51.41v4.47l1.58,10H51.41v4.17h2.16l.65,4.39h5ZM27.79,53.78h5.4V47.66l1.15-2.23,2.81,8.35h5.69l-5.11-13,5-10.08H37.15l-4,9.58V30.74h-5.4v23Zm23.62-23v4.54L49.9,45.22h1.51v4.17H49.32l-.65,4.39h-5.4l5-23Z"/><path class="cls-1" d="M43.34,21.17l8.5,8.42H44.28a1.26,1.26,0,0,0-.36-.93l-7.56-7.49-.65-.65h3.67a1.32,1.32,0,0,0,.94-2.23l-5-5-2.52-2.52h3a1.34,1.34,0,0,0,.94-2.23L35.5,7.27,37.8,5,46,13.25H41L49,21.17Z"/><path class="cls-1" d="M9.43,21.17.94,29.59H8.5a1.26,1.26,0,0,1,.36-.93l7.56-7.49.64-.65H13.39a1.32,1.32,0,0,1-.93-2.23l5-5L20,10.73H17a1.32,1.32,0,0,1-.93-2.23l1.22-1.23L15,5,6.77,13.25h5L3.82,21.17Z"/><polygon class="cls-2" points="26.35 13.03 9.79 29.59 26.35 29.59 42.98 29.59 26.35 13.03"/><polygon class="cls-3" points="26.35 6.19 13.39 19.15 26.35 19.15 39.38 19.15 26.35 6.19"/><polygon class="cls-4" points="26.35 0 16.99 9.43 26.35 9.43 35.78 9.43 26.35 0"/><path class="cls-5" d="M26.5,34.56v-.5a4.44,4.44,0,0,1-3.82-3.24H22C22.32,32.76,24.19,34.27,26.5,34.56Z"/><path class="cls-5" d="M26.5,37.87v-.93c-3.89-.29-7-2.88-7.28-6.12H18.07C18.36,34.56,22,37.58,26.5,37.87Z"/><path class="cls-5" d="M26.5,41.18V39.82c-5.84-.36-10.44-4.18-10.8-9H14.11C14.4,36.36,19.8,40.82,26.5,41.18Z"/><path class="cls-5" d="M26.5,44.42V42.7c-7.71-.36-13.9-5.48-14.26-11.88H10.15C10.51,38.16,17.64,44.14,26.5,44.42Z"/><path class="cls-5" d="M26.5,47.74V45.58c-9.65-.36-17.36-6.77-17.72-14.76H6.19C6.55,40,15.48,47.38,26.5,47.74Z"/><path class="cls-6" d="M.94,30.82,0,36.5a18.57,18.57,0,0,1,2.09-1.87,3.49,3.49,0,0,1,1.58-.57.26.26,0,0,1,.07.21c-.36.65-.79,1.3-1.22,1.95.14,1.94.36,3.88.58,5.83a18.12,18.12,0,0,1,1.58-2.38,2.54,2.54,0,0,1,1.22-.93c.08.07.15.14.15.21-.22.72-.51,1.44-.79,2.23.64,1.8,1.29,3.68,2,5.48A19.43,19.43,0,0,1,8.21,44a3.88,3.88,0,0,1,.93-1.22l.22.21c-.07.8-.22,1.52-.29,2.31l3,5a25.27,25.27,0,0,1,.36-2.74,3.06,3.06,0,0,1,.79-1.44c.07.07.14.07.21.14.08.8.15,1.59.22,2.38,1.37,1.37,2.81,2.74,4.18,4.1a21.27,21.27,0,0,1-.29-2.8,3.34,3.34,0,0,1,.36-1.52c.07,0,.14.08.29.08.21.72.43,1.44.64,2.23,1.66,1,3.32,2.09,5,3.17A14.44,14.44,0,0,1,23,51.12a3.82,3.82,0,0,1,0-1.58c.07.07.14.07.29.07.36.65.79,1.37,1.22,2,.72.22,1.37.44,2,.65V48.82c-11.74-.36-21.24-8.28-21.6-18Z"/></svg>