<?xml version="1.0" encoding="utf-8"?>
<!-- Generator: Adobe Illustrator 25.0.1, SVG Export Plug-In . SVG Version: 6.00 Build 0)  -->
<svg version="1.1" id="Vrstva_1" xmlns="http://www.w3.org/2000/svg" xmlns:xlink="http://www.w3.org/1999/xlink" x="0px" y="0px"
	 viewBox="0 0 91 53.8" style="enable-background:new 0 0 91 53.8;" xml:space="preserve">
<style type="text/css">
	.st0{fill:#FFFFFF;}
	.st1{fill:#009640;}
	.st2{fill:#008C3C;}
	.st3{fill:#52AD3B;}
	.st4{fill:#B1D178;}
	.st5{fill:#D29460;}
	.st6{fill:#DADADA;}
</style>
<path class="st0" d="M82.7,44.6v-4.4c1.3-0.3,1.8-1.1,1.8-2.8c0-1.6-0.5-2.4-1.8-2.6v-4.1C85,30.8,86.8,31,88,32
	c1.4,1.2,1.9,2.7,1.9,4.8c0,2.7-0.9,4.4-2.8,5.5c2.4,1.1,2.5,2.6,2.6,5.3c0.1,3-0.1,5,1.3,6.1h-6.3c-0.3-1-0.4-2-0.4-3.2
	c0-1,0.1-1.8,0.1-2.4C84.4,45.9,84,44.9,82.7,44.6z M82.7,30.7v4.1c-0.4-0.1-0.8-0.1-1.2-0.1c-0.2,0-0.4,0.1-0.6,0.1v5.5
	c0.2,0,0.4,0.1,0.6,0.1c0.4,0,0.9-0.1,1.2-0.1v4.4c-0.3-0.1-0.5-0.1-0.8-0.1h-1.1v9.2h-5.3v-23h6C81.9,30.7,82.3,30.7,82.7,30.7
	L82.7,30.7z M59.3,53.8v-1.2l0.3,1.2H59.3L59.3,53.8z M59.3,35.2h4v18.6h5.4V35.2h4.5v-4.5h-14V35.2z M59.3,30.7v4.5H59v-4.5H59.3
	L59.3,30.7z M59.3,52.6l-4.6-21.8h-3.2v4.5v-0.1l1.6,10h-1.6v4.2h2.2l0.6,4.4h5V52.6z M27.8,53.8h5.4v-6.1l1.2-2.2l2.8,8.4h5.7
	l-5.1-13l5-10.1h-5.5l-4,9.6v-9.6h-5.4V53.8L27.8,53.8z M51.4,30.7v4.5l-1.5,9.9h1.5v4.2h-2.1l-0.6,4.4h-5.4l5-23H51.4z"/>
<path class="st1" d="M43.3,21.2l8.5,8.4h-7.6c0-0.3-0.1-0.6-0.4-0.9l-7.6-7.5l-0.6-0.6h3.7c1.2,0,1.7-1.4,0.9-2.2l-5-5l-2.5-2.5h3
	c1.1,0,1.7-1.4,0.9-2.2l-1.2-1.2L37.8,5l8.2,8.3h-5l7.9,7.9H43.3z"/>
<path class="st1" d="M9.4,21.2l-8.5,8.4h7.6c0-0.3,0.1-0.6,0.4-0.9l7.6-7.5l0.6-0.6h-3.7c-1.2,0-1.7-1.4-0.9-2.2l5-5l2.5-2.5h-3
	c-1.2,0-1.7-1.4-0.9-2.2l1.2-1.2L15,5l-8.2,8.3h5l-7.9,7.9H9.4z"/>
<polygon class="st2" points="26.4,13 9.8,29.6 26.4,29.6 43,29.6 "/>
<polygon class="st3" points="26.4,6.2 13.4,19.2 26.4,19.2 39.4,19.2 "/>
<polygon class="st4" points="26.4,0 17,9.4 26.4,9.4 35.8,9.4 "/>
<path class="st5" d="M26.5,34.6v-0.5c-1.9-0.3-3.5-1.7-3.8-3.2H22C22.3,32.8,24.2,34.3,26.5,34.6z"/>
<path class="st5" d="M26.5,37.9v-0.9c-3.9-0.3-7-2.9-7.3-6.1h-1.2C18.4,34.6,22,37.6,26.5,37.9z"/>
<path class="st5" d="M26.5,41.2v-1.4c-5.8-0.4-10.4-4.2-10.8-9h-1.6C14.4,36.4,19.8,40.8,26.5,41.2z"/>
<path class="st5" d="M26.5,44.4v-1.7c-7.7-0.4-13.9-5.5-14.3-11.9h-2.1C10.5,38.2,17.6,44.1,26.5,44.4z"/>
<path class="st5" d="M26.5,47.7v-2.2c-9.6-0.4-17.4-6.8-17.7-14.8H6.2C6.6,40,15.5,47.4,26.5,47.7z"/>
<path class="st6" d="M0.9,30.8L0,36.5c0,0,0.8-0.9,2.1-1.9c0.5-0.4,1.1-0.5,1.6-0.6c0.1,0.1,0.1,0.1,0.1,0.2
	c-0.4,0.6-0.8,1.3-1.2,1.9c0.1,1.9,0.4,3.9,0.6,5.8c0,0,0.6-1.1,1.6-2.4c0.3-0.4,0.8-0.8,1.2-0.9C6,38.8,6,38.9,6,39
	c-0.2,0.7-0.5,1.4-0.8,2.2c0.6,1.8,1.3,3.7,2,5.5c0,0,0.3-1.2,0.9-2.7c0.2-0.5,0.6-0.9,0.9-1.2c0.1,0.1,0.1,0.1,0.2,0.2
	c-0.1,0.8-0.2,1.5-0.3,2.3c1,1.7,2,3.3,3,5c0,0,0.1-1.2,0.4-2.7c0.1-0.6,0.4-1.1,0.8-1.4c0.1,0.1,0.1,0.1,0.2,0.1
	c0.1,0.8,0.1,1.6,0.2,2.4c1.4,1.4,2.8,2.7,4.2,4.1c0,0-0.2-1.2-0.3-2.8c0-0.6,0.1-1.1,0.4-1.5c0.1,0,0.1,0.1,0.3,0.1
	c0.2,0.7,0.4,1.4,0.6,2.2c1.7,1,3.3,2.1,5,3.2c0,0-0.5-1.1-0.9-2.7c-0.1-0.5-0.1-1.1,0-1.6c0.1,0.1,0.1,0.1,0.3,0.1
	c0.4,0.6,0.8,1.4,1.2,2c0.7,0.2,1.4,0.4,2,0.6v-3.5c-11.7-0.4-21.2-8.3-21.6-18H0.9z"/>
</svg>
